<svg width="32" height="32" viewBox="0 0 32 32" fill="none" xmlns="http://www.w3.org/2000/svg">
<path d="M2 5.80335C2 6.39983 2.49968 6.90701 3.08233 6.90701H6.77539L8.59133 19.3439C8.85008 21.1008 9.78805 22.1838 11.5716 22.1838H25.2137C25.7614 22.1838 26.2463 21.7582 26.2463 21.1488C26.2463 20.5416 25.7614 20.1202 25.2137 20.1202H11.832C11.2611 20.1202 10.91 19.7147 10.8214 19.1053L10.6381 17.8917H25.3004C27.0894 17.8917 28.0316 16.8033 28.2882 15.0305L29.173 9.1371C29.1964 8.97843 29.2241 8.78249 29.2241 8.65171C29.2241 7.98375 28.7494 7.51477 27.9509 7.51477H9.14444L8.94381 6.22687C8.80975 5.21906 8.39937 4.70929 7.1007 4.70929H3.08233C2.49968 4.70929 2 5.21437 2 5.80335ZM10.486 26.0102C10.486 27.1483 11.3931 28.0415 12.527 28.0415C13.6555 28.0415 14.5562 27.1483 14.5562 26.0102C14.5562 24.8859 13.6555 23.981 12.527 23.981C11.3931 23.981 10.486 24.8859 10.486 26.0102ZM21.3249 26.0102C21.3249 27.1483 22.2395 28.0415 23.3638 28.0415C24.4998 28.0415 25.4026 27.1483 25.4026 26.0102C25.4026 24.8859 24.4998 23.981 23.3638 23.981C22.2395 23.981 21.3249 24.8859 21.3249 26.0102Z" fill="#888"/>
</svg>
