<svg width="25" height="25" viewBox="0 0 25 25" fill="none" xmlns="http://www.w3.org/2000/svg">
<g clip-path="url(#clip0_30_105)">
<path d="M12.1 0C5.48 0 0 5.47 0 12.1C0 18.73 5.48 24.21 12.1 24.21C18.72 24.21 24.21 18.73 24.21 12.1C24.21 5.47 18.73 0 12.1 0ZM16.74 15.18C16.96 15.38 17.07 15.66 17.07 15.96C17.07 16.57 16.58 17.06 15.96 17.06C15.64 17.06 15.36 16.96 15.16 16.74L12.1 13.69L9.07 16.74C8.85 16.96 8.57 17.06 8.26 17.06C7.64 17.06 7.16 16.57 7.16 15.96C7.16 15.67 7.27 15.39 7.49 15.19L10.54 12.12L7.49 9.06C7.27 8.85 7.16 8.58 7.16 8.29C7.16 7.66 7.64 7.19 8.26 7.19C8.57 7.19 8.82 7.3 9.04 7.5L12.1 10.56L15.2 7.49C15.42 7.27 15.67 7.17 15.98 7.17C16.59 7.17 17.08 7.65 17.08 8.27C17.08 8.57 16.98 8.82 16.75 9.05L13.68 12.12L16.74 15.18V15.18Z" fill="#A6A6A6"/>
</g>
<defs>
<clipPath id="clip0_30_105">
<rect width="24.21" height="24.21" fill="white"/>
</clipPath>
</defs>
</svg>
