<svg width="21" height="21" viewBox="0 0 21 21" fill="none" xmlns="http://www.w3.org/2000/svg">
<path d="M0 8.57699C0 13.3108 3.88251 17.1559 8.6583 17.1559C10.4344 17.1559 12.0643 16.615 13.4233 15.7021L18.3098 20.5525C18.6157 20.8557 19.021 21 19.4475 21C20.3527 21 21 20.3222 21 19.4358C21 19.0189 20.8455 18.6298 20.5533 18.3403L15.7043 13.508C16.7195 12.1242 17.3166 10.4229 17.3166 8.57699C17.3166 3.84501 13.4341 0 8.6583 0C3.88251 0 0 3.84501 0 8.57699ZM2.25533 8.57699C2.25533 5.07658 5.12549 2.23465 8.6583 2.23465C12.1911 2.23465 15.0593 5.07658 15.0593 8.57699C15.0593 12.0793 12.1911 14.9211 8.6583 14.9211C5.12549 14.9211 2.25533 12.0793 2.25533 8.57699Z" fill="#A6A6A6"/>
</svg>
