<svg width="154" height="24" viewBox="0 0 154 24" fill="none" xmlns="http://www.w3.org/2000/svg">
<path d="M10.4375 0.09375C13.5833 0.09375 16.0781 1.14062 17.9219 3.23438C19.7656 5.32812 20.6875 8.16146 20.6875 11.7344C20.6875 15.3073 19.7656 18.1406 17.9219 20.2344C16.0781 22.3177 13.5833 23.3594 10.4375 23.3594C7.29167 23.3594 4.79688 22.3177 2.95312 20.2344C1.11979 18.1406 0.203125 15.3073 0.203125 11.7344C0.203125 8.16146 1.125 5.32812 2.96875 3.23438C4.8125 1.14062 7.30208 0.09375 10.4375 0.09375ZM16.3125 4.6875C14.8646 2.94792 12.9062 2.07812 10.4375 2.07812C7.96875 2.07812 6.01042 2.94792 4.5625 4.6875C3.11458 6.42708 2.39062 8.77604 2.39062 11.7344C2.39062 14.6927 3.11458 17.0417 4.5625 18.7812C6.01042 20.5104 7.96875 21.375 10.4375 21.375C12.9062 21.375 14.8646 20.5052 16.3125 18.7656C17.7708 17.026 18.5 14.6823 18.5 11.7344C18.5 8.77604 17.7708 6.42708 16.3125 4.6875ZM23.4357 23V6.75H25.3889V9.75H25.4357C25.8628 8.73958 26.5399 7.94271 27.467 7.35938C28.4045 6.77604 29.5139 6.48438 30.7951 6.48438C32.5764 6.48438 33.9774 7.02083 34.9982 8.09375C36.0295 9.16667 36.5451 10.625 36.5451 12.4688V23H34.4826V12.7969C34.4826 11.3802 34.1076 10.2812 33.3576 9.5C32.618 8.71875 31.566 8.32812 30.2014 8.32812C28.7951 8.32812 27.6597 8.79167 26.7951 9.71875C25.9305 10.6458 25.4982 11.8646 25.4982 13.375V23H23.4357ZM39.7621 23V0.453125H41.8246V23H39.7621ZM45.2604 23V6.75H47.3229V23H45.2604ZM46.2916 3.46875C45.9166 3.46875 45.5937 3.33854 45.3229 3.07812C45.052 2.80729 44.9166 2.47917 44.9166 2.09375C44.9166 1.71875 45.052 1.40104 45.3229 1.14062C45.5937 0.869792 45.9166 0.734375 46.2916 0.734375C46.677 0.734375 47.0052 0.869792 47.276 1.14062C47.5468 1.40104 47.6823 1.71875 47.6823 2.09375C47.6823 2.47917 47.5468 2.80729 47.276 3.07812C47.0052 3.33854 46.677 3.46875 46.2916 3.46875ZM50.618 23V6.75H52.5711V9.75H52.618C53.0451 8.73958 53.7222 7.94271 54.6493 7.35938C55.5868 6.77604 56.6961 6.48438 57.9774 6.48438C59.7586 6.48438 61.1597 7.02083 62.1805 8.09375C63.2118 9.16667 63.7274 10.625 63.7274 12.4688V23H61.6649V12.7969C61.6649 11.3802 61.2899 10.2812 60.5399 9.5C59.8003 8.71875 58.7482 8.32812 57.3836 8.32812C55.9774 8.32812 54.842 8.79167 53.9774 9.71875C53.1128 10.6458 52.6805 11.8646 52.6805 13.375V23H50.618ZM73.2256 8.29688C71.7777 8.29688 70.585 8.80208 69.6475 9.8125C68.7204 10.8125 68.2152 12.1198 68.1319 13.7344H78.1631C78.1423 12.1198 77.6787 10.8125 76.7725 9.8125C75.8662 8.80208 74.684 8.29688 73.2256 8.29688ZM78.0381 18.3906H80.085C79.835 19.8177 79.0954 20.9896 77.8662 21.9062C76.6475 22.8125 75.1527 23.2656 73.3819 23.2656C71.1006 23.2656 69.2985 22.5208 67.9756 21.0312C66.6527 19.5312 65.9912 17.4948 65.9912 14.9219C65.9912 12.3906 66.6527 10.3542 67.9756 8.8125C69.2985 7.26042 71.059 6.48438 73.2569 6.48438C75.4027 6.48438 77.111 7.21354 78.3819 8.67188C79.6527 10.1302 80.2881 12.0729 80.2881 14.5V15.375H68.1162V15.5C68.1162 17.3333 68.5954 18.7865 69.5537 19.8594C70.5121 20.9219 71.8037 21.4531 73.4287 21.4531C74.6267 21.4531 75.6371 21.1719 76.46 20.6094C77.2829 20.0469 77.809 19.3073 78.0381 18.3906ZM88.0346 16.875H90.1752C90.2898 18.2292 90.9305 19.3281 92.0971 20.1719C93.2638 21.0052 94.7273 21.4219 96.4877 21.4219C98.1752 21.4219 99.5607 21.0104 100.644 20.1875C101.738 19.3646 102.285 18.3177 102.285 17.0469C102.285 15.9948 101.904 15.1406 101.144 14.4844C100.384 13.8177 99.1648 13.2708 97.4877 12.8438L94.6909 12.125C92.5971 11.5938 91.0659 10.8646 90.0971 9.9375C89.1388 9.01042 88.6596 7.80729 88.6596 6.32812C88.6596 4.51562 89.3888 3.02604 90.8471 1.85938C92.3055 0.682292 94.1492 0.09375 96.3784 0.09375C98.5659 0.09375 100.384 0.677083 101.831 1.84375C103.29 3 104.05 4.47396 104.113 6.26562H101.972C101.868 4.99479 101.3 3.97396 100.269 3.20312C99.2377 2.42188 97.92 2.03125 96.3159 2.03125C94.743 2.03125 93.4409 2.42708 92.4096 3.21875C91.3888 4 90.8784 5.01042 90.8784 6.25C90.8784 7.21875 91.2482 8.01042 91.9877 8.625C92.7273 9.22917 93.9305 9.74479 95.5971 10.1719L98.0346 10.7969C100.305 11.3698 101.946 12.125 102.956 13.0625C103.967 14 104.472 15.25 104.472 16.8125C104.472 18.7917 103.733 20.3802 102.253 21.5781C100.774 22.7656 98.7898 23.3594 96.3002 23.3594C93.9461 23.3594 92.0086 22.7656 90.4877 21.5781C88.9669 20.3802 88.1492 18.8125 88.0346 16.875ZM108.002 2.6875H110.064V6.75H113.267V8.46875H110.064V18.9062C110.064 19.7396 110.236 20.349 110.58 20.7344C110.924 21.1094 111.47 21.2969 112.22 21.2969C112.804 21.2969 113.179 21.276 113.345 21.2344V23C113.054 23.0625 112.543 23.0938 111.814 23.0938C110.45 23.0938 109.47 22.7812 108.877 22.1562C108.293 21.5208 108.002 20.4688 108.002 19V8.46875H105.58V6.75H108.002V2.6875ZM127.203 21C125.849 22.5104 124.057 23.2656 121.828 23.2656C119.599 23.2656 117.807 22.5104 116.453 21C115.099 19.4792 114.422 17.4375 114.422 14.875C114.422 12.3125 115.099 10.276 116.453 8.76562C117.818 7.24479 119.609 6.48438 121.828 6.48438C124.057 6.48438 125.849 7.24479 127.203 8.76562C128.557 10.276 129.234 12.3125 129.234 14.875C129.234 17.4375 128.557 19.4792 127.203 21ZM117.969 19.6875C118.927 20.8542 120.213 21.4375 121.828 21.4375C123.443 21.4375 124.729 20.8542 125.687 19.6875C126.656 18.5208 127.141 16.9167 127.141 14.875C127.141 12.8333 126.656 11.2292 125.687 10.0625C124.729 8.89583 123.443 8.3125 121.828 8.3125C120.213 8.3125 118.927 8.89583 117.969 10.0625C117.01 11.2292 116.531 12.8333 116.531 14.875C116.531 16.9167 117.01 18.5208 117.969 19.6875ZM131.576 23V6.75H133.529V9.64062H133.576C133.878 8.65104 134.389 7.88021 135.107 7.32812C135.826 6.76562 136.686 6.48438 137.686 6.48438C138.081 6.48438 138.509 6.54167 138.967 6.65625V8.6875C138.634 8.53125 138.118 8.45312 137.42 8.45312C136.274 8.45312 135.357 8.85938 134.67 9.67188C133.982 10.4844 133.639 11.5521 133.639 12.875V23H131.576ZM146.278 8.29688C144.83 8.29688 143.637 8.80208 142.699 9.8125C141.772 10.8125 141.267 12.1198 141.184 13.7344H151.215C151.194 12.1198 150.731 10.8125 149.824 9.8125C148.918 8.80208 147.736 8.29688 146.278 8.29688ZM151.09 18.3906H153.137C152.887 19.8177 152.147 20.9896 150.918 21.9062C149.699 22.8125 148.205 23.2656 146.434 23.2656C144.153 23.2656 142.351 22.5208 141.028 21.0312C139.705 19.5312 139.043 17.4948 139.043 14.9219C139.043 12.3906 139.705 10.3542 141.028 8.8125C142.351 7.26042 144.111 6.48438 146.309 6.48438C148.455 6.48438 150.163 7.21354 151.434 8.67188C152.705 10.1302 153.34 12.0729 153.34 14.5V15.375H141.168V15.5C141.168 17.3333 141.647 18.7865 142.606 19.8594C143.564 20.9219 144.856 21.4531 146.481 21.4531C147.679 21.4531 148.689 21.1719 149.512 20.6094C150.335 20.0469 150.861 19.3073 151.09 18.3906Z" fill="white"/>
</svg>
