<svg width="20" height="20" viewBox="0 0 20 20" fill="none" xmlns="http://www.w3.org/2000/svg">
<g clip-path="url(#clip0_32330_1584)">
<path d="M0 9.80718C0 10.5269 0.59437 11.1138 1.30663 11.1138H8.50266V18.3098C8.50266 19.02 9.08742 19.6144 9.80718 19.6144C10.5269 19.6144 11.1234 19.02 11.1234 18.3098V11.1138H18.3098C19.02 11.1138 19.6144 10.5269 19.6144 9.80718C19.6144 9.08742 19.02 8.49094 18.3098 8.49094H11.1234V1.30663C11.1234 0.59437 10.5269 0 9.80718 0C9.08742 0 8.50266 0.59437 8.50266 1.30663V8.49094H1.30663C0.59437 8.49094 0 9.08742 0 9.80718Z" fill="#8C8C94"/>
</g>
<defs>
<clipPath id="clip0_32330_1584">
<rect width="20" height="20" fill="white"/>
</clipPath>
</defs>
</svg>
