<svg width="10" height="10" viewBox="0 0 10 10" fill="none" xmlns="http://www.w3.org/2000/svg">
<path d="M1.05562 9.82102C1.36523 9.82102 1.62492 9.70713 1.82601 9.49643L4.9083 6.40665L8.014 9.49643C8.2151 9.69753 8.4652 9.82102 8.7748 9.82102C9.36 9.82102 9.83039 9.35064 9.83039 8.75364C9.83039 8.46094 9.7219 8.21834 9.5133 8.00974L6.4151 4.90945L9.5229 1.78991C9.7411 1.57171 9.83999 1.33874 9.83999 1.05562C9.83999 0.468281 9.3696 0 8.7844 0C8.4961 0 8.2631 0.10219 8.0428 0.3225L4.9083 3.42615L1.80679 0.33422C1.6057 0.1214 1.36523 0.01922 1.05562 0.01922C0.470389 0.01922 0 0.47789 0 1.06523C0 1.34835 0.11813 1.60264 0.31711 1.79951L3.4174 4.90945L0.31711 8.01933C0.11813 8.21834 0 8.47264 0 8.75364C0 9.35064 0.470389 9.82102 1.05562 9.82102Z" fill="#6E6E73"/>
</svg>
