<svg width="53" height="52" viewBox="0 0 53 52" fill="none" xmlns="http://www.w3.org/2000/svg">
<path fill-rule="evenodd" clip-rule="evenodd" d="M26.5 0C11.8587 0 0 11.8587 0 26.5C0 38.2262 7.58562 48.1306 18.1194 51.6419C19.4444 51.8737 19.9412 51.0788 19.9412 50.3831C19.9412 49.7537 19.9081 47.6669 19.9081 45.4475C13.25 46.6731 11.5275 43.8244 10.9975 42.3337C10.6994 41.5719 9.4075 39.22 8.28125 38.5906C7.35375 38.0938 6.02875 36.8681 8.24813 36.835C10.335 36.8019 11.8256 38.7562 12.3225 39.5513C14.7075 43.5594 18.5169 42.4331 20.0406 41.7375C20.2725 40.015 20.9681 38.8556 21.73 38.1931C15.8337 37.5306 9.6725 35.245 9.6725 25.1087C9.6725 22.2269 10.6994 19.8419 12.3888 17.9869C12.1237 17.3244 11.1962 14.6081 12.6537 10.9644C12.6537 10.9644 14.8731 10.2688 19.9412 13.6806C22.0613 13.0844 24.3138 12.7863 26.5663 12.7863C28.8188 12.7863 31.0713 13.0844 33.1912 13.6806C38.2594 10.2356 40.4788 10.9644 40.4788 10.9644C41.9363 14.6081 41.0088 17.3244 40.7438 17.9869C42.4331 19.8419 43.46 22.1938 43.46 25.1087C43.46 35.2781 37.2656 37.5306 31.3694 38.1931C32.33 39.0212 33.1581 40.6113 33.1581 43.0956C33.1581 46.64 33.125 49.4888 33.125 50.3831C33.125 51.0788 33.6219 51.9069 34.9469 51.6419C45.4144 48.1306 53 38.1931 53 26.5C53 11.8587 41.1413 0 26.5 0Z" fill="#6E6E73"/>
</svg>
