<svg width="13" height="22" viewBox="0 0 13 22" fill="none" xmlns="http://www.w3.org/2000/svg">
<path d="M0.0144758 11C0.0144758 11.4372 0.188196 11.8038 0.535635 12.1423L10.4232 21.5769C10.7127 21.8449 11.0601 22 11.48 22C12.3341 22 13 21.3513 13 20.5192C13 20.1244 12.8408 19.7577 12.5367 19.4615L3.63363 11L12.5367 2.53846C12.8263 2.25641 13 1.88974 13 1.48077C13 0.648718 12.3341 -1.565e-07 11.48 -1.565e-07C11.0746 -1.565e-07 10.7127 0.155128 10.4232 0.423077L0.521158 9.87179C0.159242 10.1962 2.21612e-07 10.5628 2.21612e-07 11H0.0144758Z" fill="black" fill-opacity="0.56"/>
</svg>
