<svg width="13" height="22" viewBox="0 0 13 22" fill="none" xmlns="http://www.w3.org/2000/svg">
<path d="M12.9855 11C12.9855 10.5628 12.8118 10.1962 12.4644 9.85769L2.57684 0.423077C2.28731 0.155128 1.93987 0 1.52004 0C0.665924 0 0 0.648718 0 1.48077C0 1.87564 0.159243 2.24231 0.463252 2.53846L9.36637 11L0.463252 19.4615C0.173719 19.7436 0 20.1103 0 20.5192C0 21.3513 0.665924 22 1.52004 22C1.92539 22 2.28731 21.8449 2.57684 21.5769L12.4788 12.1282C12.8408 11.8038 13 11.4372 13 11H12.9855Z" fill="#5C5C5F"/>
</svg>
