<svg width="153" height="60" viewBox="0 0 153 60" fill="none" xmlns="http://www.w3.org/2000/svg">
<path d="M79.1476 22.1773L86.3936 21.7093C86.5589 22.893 86.8619 23.7739 87.3579 24.407C88.1568 25.398 89.2589 25.8935 90.7191 25.8935C91.7936 25.8935 92.6477 25.6457 93.2263 25.1227C93.7773 24.7098 94.1079 24.0491 94.1079 23.3609C94.1079 22.7003 93.8049 22.0672 93.2814 21.6542C92.7304 21.1587 91.4355 20.6633 89.3967 20.2228C86.0629 19.4796 83.666 18.4886 82.2609 17.2223C80.8557 16.0386 80.0568 14.3044 80.1119 12.4601C80.1119 11.1938 80.4976 9.92754 81.2139 8.88149C82.0405 7.69781 83.1701 6.76187 84.5201 6.23885C85.9803 5.60572 88.0191 5.27539 90.5814 5.27539C93.7222 5.27539 96.1192 5.85347 97.7723 7.03715C99.4253 8.1933 100.417 10.0652 100.72 12.6252L93.5569 13.0381C93.364 11.937 92.9783 11.1387 92.3446 10.6157C91.711 10.0927 90.8844 9.84495 89.8099 9.84495C88.9283 9.84495 88.267 10.0376 87.8262 10.3955C87.413 10.7258 87.1374 11.2213 87.165 11.7719C87.165 12.1848 87.3854 12.5702 87.716 12.8179C88.0742 13.1483 88.9283 13.4511 90.2783 13.7263C93.612 14.442 95.9814 15.1578 97.4416 15.901C98.9019 16.6442 99.9488 17.5526 100.582 18.6262C101.244 19.7273 101.574 20.9936 101.547 22.2874C101.547 23.8289 101.106 25.3705 100.224 26.6642C99.3151 28.0131 98.0478 29.0591 96.56 29.6923C94.9896 30.3805 93.0059 30.7383 90.6365 30.7383C86.4487 30.7383 83.5558 29.94 81.9302 28.3159C80.3047 26.6918 79.3404 24.6547 79.1476 22.1773ZM2.25185 30.3254V5.71583H14.953C17.2949 5.71583 19.1133 5.90852 20.3531 6.32143C21.5653 6.70682 22.6398 7.50512 23.3562 8.57869C24.1551 9.76237 24.5409 11.1387 24.5133 12.5702C24.596 14.9926 23.3562 17.3049 21.2347 18.5161C20.4082 18.9841 19.499 19.3144 18.5622 19.4796C19.251 19.6723 19.9398 20.0026 20.5459 20.388C21.0143 20.7734 21.4 21.2138 21.7582 21.6818C22.1714 22.1497 22.5296 22.6728 22.8327 23.2233L26.5246 30.3529H17.8734L13.7958 22.7829C13.2724 21.8194 12.8316 21.1863 12.4183 20.8835C11.8673 20.4981 11.206 20.3054 10.5448 20.3054H9.88356V30.2979H2.25185V30.3254ZM9.88356 15.6808H13.1071C13.7958 15.6257 14.4571 15.5156 15.1183 15.3505C15.6142 15.2679 16.0551 14.9926 16.3581 14.5797C17.102 13.5887 16.9918 12.1848 16.0826 11.3314C15.5867 10.9185 14.6224 10.6983 13.2448 10.6983H9.88356V15.6808ZM0.516113 51.4115L7.76211 50.9435C7.92742 52.1272 8.23048 53.008 8.7264 53.6412C9.49784 54.6322 10.6274 55.1552 12.0877 55.1552C13.1622 55.1552 14.0163 54.9074 14.5948 54.3844C15.1459 53.944 15.4765 53.3109 15.4765 52.6227C15.4765 51.962 15.1734 51.3289 14.6499 50.916C14.0989 50.4205 12.804 49.925 10.7377 49.4845C7.40394 48.7413 5.00698 47.7503 3.60186 46.484C2.19674 45.3004 1.39776 43.5661 1.45286 41.7218C1.45286 40.4555 1.83858 39.1893 2.55491 38.1432C3.38145 36.9595 4.51105 36.0236 5.86107 35.5006C7.32129 34.8674 9.36009 34.5371 11.9224 34.5371C15.0632 34.5371 17.4602 35.1152 19.1133 36.2989C20.7663 37.4825 21.7306 39.3269 22.0337 41.8869L14.8703 42.2999C14.6775 41.1988 14.2918 40.4005 13.6581 39.8774C13.052 39.3544 12.1979 39.1067 11.1234 39.1342C10.2417 39.1342 9.5805 39.3269 9.13967 39.7123C8.69885 40.0426 8.45089 40.5381 8.47844 41.0886C8.47844 41.5016 8.69885 41.8869 9.02947 42.1347C9.38764 42.465 10.2417 42.7678 11.5917 43.0431C14.9255 43.7588 17.2949 44.4745 18.7551 45.2178C20.2153 45.961 21.2623 46.8694 21.8959 47.943C22.5572 49.0441 22.8878 50.3104 22.8878 51.5766C22.8878 53.1182 22.4194 54.6322 21.5653 55.926C20.6561 57.2748 19.3888 58.3209 17.901 58.954C16.3306 59.6422 14.3469 60 11.9775 60C7.78966 60 4.89677 59.2017 3.27124 57.5776C1.64572 55.926 0.736524 53.8889 0.516113 51.4115H0.516113Z" fill="#6E6E73"/>
<path d="M37.3644 49.6737L43.9936 51.6522C43.6374 53.3055 42.8978 54.8775 41.8843 56.2598C40.9529 57.4794 39.7202 58.428 38.3231 59.0514C36.8987 59.6748 35.0907 60 32.8992 60C30.2421 60 28.0506 59.6206 26.3796 58.8617C24.6812 58.1028 23.2294 56.7476 21.9967 54.8233C20.764 52.8989 20.1613 50.4325 20.1613 47.4241C20.1613 43.4128 21.2297 40.323 23.3937 38.1818C25.5578 36.0407 28.5985 34.9565 32.5431 34.9565C35.6386 34.9565 38.0492 35.5799 39.8298 36.7996C41.5829 38.0463 42.8978 39.9436 43.7744 42.4913L37.0904 43.9549C36.9261 43.3857 36.6795 42.8165 36.3508 42.3287C35.9399 41.7595 35.4194 41.3258 34.7894 41.0006C34.1593 40.6753 33.4471 40.5398 32.7349 40.5398C31.0091 40.5398 29.6942 41.2174 28.7902 42.5997C28.1054 43.6025 27.7493 45.2016 27.7493 47.3699C27.7493 50.0531 28.1602 51.8961 28.982 52.8989C29.8038 53.9018 30.9543 54.3896 32.4609 54.3896C33.9128 54.3896 35.0085 53.9831 35.7481 53.1971C36.4878 52.3569 37.0356 51.1914 37.3644 49.6737ZM52.8416 35.3631H60.4022V43.8464H68.675V35.3631H76.2903V59.5935H68.675V49.7821H60.4022V59.5935H52.8416V35.3631V35.3631Z" fill="#6E6E73"/>
<path d="M75.3549 47.4918C75.3549 43.539 76.4856 40.4526 78.7195 38.2596C80.9533 36.0666 84.0973 34.9565 88.0962 34.9565C92.2054 34.9565 95.3494 36.0395 97.5832 38.2054C99.8171 40.3713 100.92 43.4036 100.92 47.3023C100.92 50.1451 100.424 52.4464 99.4586 54.2603C98.5209 56.0472 97.0592 57.5092 95.2666 58.4839C93.4188 59.4856 91.1298 60 88.3995 60C85.6141 60 83.3251 59.5668 81.5049 58.7005C79.6295 57.7799 78.0851 56.345 77.0647 54.5852C75.934 52.69 75.3549 50.3346 75.3549 47.4918ZM82.9666 47.5189C82.9666 49.9556 83.4354 51.7154 84.3455 52.7983C85.2556 53.8542 86.5242 54.3957 88.1238 54.3957C89.7509 54.3957 91.0195 53.8813 91.9296 52.8254C92.8397 51.7695 93.281 49.9014 93.281 47.194C93.281 44.9198 92.8121 43.2412 91.8745 42.2124C90.9368 41.1565 89.6682 40.6421 88.0686 40.6421C86.6621 40.5879 85.3107 41.1836 84.3731 42.2395C83.4354 43.2953 82.9666 45.0552 82.9666 47.5189V47.5189ZM108.725 47.4918C108.725 43.539 109.856 40.4526 112.09 38.2596C114.323 36.0666 117.467 34.9565 121.466 34.9565C125.576 34.9565 128.747 36.0395 130.953 38.2054C133.16 40.3713 134.29 43.4036 134.29 47.3023C134.29 50.1451 133.794 52.4464 132.829 54.2603C131.891 56.0472 130.429 57.5092 128.637 58.4839C126.789 59.4856 124.5 60 121.77 60C118.984 60 116.695 59.5668 114.875 58.7005C113 57.7799 111.455 56.345 110.435 54.5852C109.304 52.69 108.725 50.3346 108.725 47.4918V47.4918ZM116.337 47.5189C116.337 49.9556 116.806 51.7154 117.716 52.7983C118.626 53.8542 119.894 54.3957 121.494 54.3957C123.121 54.3957 124.39 53.8813 125.3 52.8254C126.21 51.7695 126.651 49.9014 126.651 47.194C126.651 44.9198 126.182 43.2412 125.245 42.2124C124.307 41.1565 123.038 40.6421 121.439 40.6421C120.032 40.5879 118.653 41.1836 117.743 42.2395C116.806 43.2953 116.337 45.0552 116.337 47.5189V47.5189Z" fill="#6E6E73"/>
<path d="M133.383 34.9565H141.041V53.8372H153V60H133.355V34.9565H133.383Z" fill="#6E6E73"/>
<path d="M125.107 33.7613C132.772 28.0407 135.135 18.3433 130.386 12.1016C125.637 5.85995 115.573 5.43754 107.908 11.1582C100.244 16.8788 97.88 26.5761 102.629 32.8178C107.378 39.0595 117.442 39.4819 125.107 33.7613Z" stroke="#6E6E73" stroke-width="4" stroke-miterlimit="10"/>
<path d="M108.755 20.6644L111.514 18.7521L114.907 23.5329C115.486 24.2978 115.927 25.1174 116.258 26.0189C116.451 26.7019 116.396 27.4395 116.12 28.0952C115.762 28.9148 115.182 29.5977 114.41 30.0895C113.5 30.7178 112.727 31.073 112.065 31.1822C111.431 31.2915 110.769 31.1822 110.162 30.9091C109.5 30.5812 108.921 30.1168 108.48 29.5158L110.852 27.3303C111.045 27.6308 111.293 27.904 111.569 28.1225C111.762 28.2591 111.983 28.3411 112.231 28.3411C112.424 28.3411 112.617 28.2591 112.755 28.1498C113.031 27.9859 113.224 27.6581 113.196 27.3303C113.114 26.8658 112.921 26.4014 112.617 26.0463L108.755 20.6644ZM117.031 23.6968L119.541 21.7298C119.817 22.0577 120.175 22.3035 120.561 22.4401C121.113 22.6041 121.692 22.4948 122.161 22.1396C122.492 21.9211 122.768 21.6206 122.878 21.2381C123.044 20.7464 122.768 20.2 122.272 20.0361C122.189 20.0087 122.106 19.9814 122.023 19.9814C121.692 19.9541 121.113 20.0907 120.258 20.4459C118.851 21.0196 117.748 21.2381 116.92 21.1561C116.12 21.0742 115.376 20.6644 114.934 19.9814C114.603 19.517 114.438 18.9706 114.41 18.4242C114.41 17.7959 114.576 17.1676 114.934 16.6485C115.458 15.9109 116.093 15.2826 116.865 14.7908C118.024 13.9986 119.044 13.6161 119.927 13.6161C120.81 13.6161 121.637 14.0259 122.409 14.8728L119.927 16.8124C119.43 16.1841 118.493 16.0475 117.858 16.5392L117.775 16.6212C117.499 16.7851 117.306 17.031 117.196 17.3315C117.113 17.55 117.168 17.7959 117.306 17.9871C117.417 18.1237 117.582 18.233 117.775 18.233C117.996 18.2603 118.382 18.1511 118.934 17.9052C120.313 17.3315 121.361 17.0037 122.078 16.8944C122.685 16.7851 123.32 16.8397 123.899 17.0856C124.423 17.3042 124.864 17.6866 125.168 18.1511C125.554 18.6974 125.775 19.3531 125.802 20.0361C125.83 20.7464 125.637 21.4293 125.251 22.0304C124.754 22.768 124.12 23.3963 123.375 23.8881C121.858 24.9262 120.616 25.3633 119.623 25.1994C118.548 25.0355 117.665 24.4891 117.031 23.6968Z" fill="#6E6E73"/>
</svg>
