<svg width="21" height="21" viewBox="0 0 21 21" fill="none" xmlns="http://www.w3.org/2000/svg">
<path d="M7.9254 20.8903C8.5347 20.8903 9.0155 20.636 9.3494 20.1265L20.3646 2.95472C20.6114 2.56847 20.7103 2.24527 20.7103 1.92723C20.7103 1.12028 20.1429 0.563416 19.3275 0.563416C18.7491 0.563416 18.4132 0.757946 18.0623 1.30872L7.8785 17.4877L2.6306 10.74C2.28912 10.2877 1.93077 10.0983 1.42452 10.0983C0.58781 10.0983 0 10.684 0 11.493C0 11.8406 0.12984 12.1917 0.42211 12.5468L6.4936 20.1431C6.8979 20.6487 7.335 20.8903 7.9254 20.8903Z" fill="white"/>
</svg>
