<svg width="35" height="37" viewBox="0 0 35 37" fill="none" xmlns="http://www.w3.org/2000/svg">
<g clip-path="url(#clip0_161_108)">
<path fill-rule="evenodd" clip-rule="evenodd" d="M32.3077 31.82C32.3077 33.3 30.9615 34.5333 29.3462 34.5333H5.65385C4.03846 34.5333 2.69231 33.3 2.69231 31.82V12.3333C2.69231 11.1 4.03846 9.86667 5.65385 9.86667H29.6154C31.2308 9.86667 32.5769 11.1 32.5769 12.58V31.82H32.3077ZM17.5 2.46667C20.7308 2.46667 23.1538 4.68667 23.6923 7.4H11.3077C11.8462 4.68667 14.2692 2.46667 17.5 2.46667ZM29.3462 7.4H26.3846C25.8462 3.20667 22.0769 0 17.5 0C12.9231 0 9.15385 3.20667 8.61539 7.4H5.65385C2.42308 7.4 0 9.62 0 12.58V32.0667C0 34.78 2.42308 37 5.65385 37H29.6154C32.5769 37 35.2692 34.78 35.2692 31.82V12.3333C35 9.62 32.5769 7.4 29.3462 7.4Z" fill="white"/>
</g>
<defs>
<clipPath id="clip0_161_108">
<rect width="35" height="37" fill="white"/>
</clipPath>
</defs>
</svg>
